<svg aria-hidden="true" style="width:0;height:0;position:absolute;overflow:hidden" xmlns="http://www.w3.org/2000/svg"><defs><symbol id="icon-advantages1" viewBox="0 0 32 32"><path d="M26.538 13.421a1.042 1.042 0 0 0-.802-.378H6.265a1.042 1.042 0 0 0-1.021 1.237l3.245 16.877c.094.49.523.844 1.021.844h12.981a1.04 1.04 0 0 0 1.021-.844l3.245-16.877a1.04 1.04 0 0 0-.219-.859zm-2.194 1.702c-.478 3.857-3.774 6.473-8.344 6.473s-7.866-2.616-8.344-6.473h16.688zM21.631 29.92H10.368l-1.684-8.758c1.847 1.583 4.388 2.514 7.315 2.514s5.468-.931 7.315-2.514L21.63 29.92zM7.53 7.891c.521.521 1.213.807 1.949.807s1.428-.287 1.949-.807l.287-.287c.488.267.999.488 1.529.659v1.111c0 1.52 1.236 2.756 2.756 2.756s2.756-1.236 2.756-2.756V8.263a8.762 8.762 0 0 0 1.529-.659l.287.287c.521.521 1.213.807 1.949.807s1.428-.287 1.949-.807a2.759 2.759 0 0 0 0-3.898l-.347-.347c.503-.732.811-1.256.811-2.606A1.04 1.04 0 0 0 23.894 0H8.105a1.04 1.04 0 0 0-1.04 1.04c0 1.35.308 1.874.811 2.606l-.347.347a2.759 2.759 0 0 0 0 3.898zm1.471-2.427.942-.942a1.04 1.04 0 0 0 .159-1.266 13.212 13.212 0 0 0-.503-.776 5.703 5.703 0 0 1-.26-.399h13.322c-.065.116-.15.239-.26.399-.139.201-.311.452-.503.776a1.04 1.04 0 0 0 .159 1.266l.942.942c.128.128.198.297.198.478s-.07.35-.198.478-.297.198-.478.198-.35-.07-.478-.198l-.866-.866a1.041 1.041 0 0 0-1.322-.124 6.796 6.796 0 0 1-2.365 1.023 1.04 1.04 0 0 0-.815 1.015v1.905a.676.676 0 0 1-1.352 0V7.468c0-.488-.339-.91-.815-1.015a6.788 6.788 0 0 1-2.365-1.023 1.04 1.04 0 0 0-1.322.124l-.866.866c-.128.128-.297.198-.478.198s-.35-.07-.478-.198a.67.67 0 0 1-.198-.478c0-.181.07-.351.198-.478z"/></symbol><symbol id="icon-advantages2" viewBox="0 0 32 32"><path d="M29.626 21.411c-1.292-.458-2.382-.344-3.242.018.145-.877.47-1.832 1.17-2.481a1.065 1.065 0 0 0-1.449-1.561c-1.229 1.14-1.706 2.748-1.874 4.081a4.036 4.036 0 0 0-1.058-.311l1.89-9.83a1.065 1.065 0 0 0-1.046-1.266h-.204c.094-.5.141-.997.137-1.47-.016-1.994-.903-3.495-2.374-4.017-1.41-.5-2.59-.35-3.507.066.145-.976.494-2.063 1.282-2.794A1.065 1.065 0 0 0 17.902.285c-1.32 1.225-1.815 2.965-1.982 4.386-.735-.348-1.644-.527-2.708-.33-1.094-1.571-2.613-2.296-4.089-1.942-1.451.349-2.358 1.115-2.901 1.962-.41-.899-.712-2.001-.452-3.036A1.065 1.065 0 0 0 3.705.806c-.439 1.746.095 3.476.729 4.758-1.016.137-2.117.65-3.049 1.866-.578.755-.773 1.698-.596 2.7a1.065 1.065 0 0 0-.674 1.197l3.809 19.809c.096.501.535.864 1.046.864h15.237c.511 0 .949-.362 1.046-.864l.038-.195c.287.198.596.363.927.487 1.266.471 2.447.278 3.044.118.316.085.795.179 1.364.179.506 0 1.084-.075 1.68-.297 2.36-.879 3.614-3.839 3.596-6.178-.015-1.904-.866-3.339-2.276-3.839zm-6.952-9.22c-.49 4.705-4.452 7.91-9.971 7.91s-9.481-3.204-9.971-7.91h19.942zm-6.642-4.676a1.047 1.047 0 0 0 1.86 0c.029-.048.29-.466.769-.777.629-.408 1.35-.46 2.203-.157.851.302.952 1.518.956 2.027.004.463-.064.962-.191 1.453h-7.126c.236-1.19.094-2.492-.289-3.669a2.12 2.12 0 0 1 1.047.346c.479.311.74.729.769.777zM3.078 8.724c.55-.719 1.182-1.068 1.932-1.069h.002c.57 0 1.016.208 1.066.232.341.19.749.172 1.079-.037.331-.211.51-.591.481-.983-.006-.077-.115-1.893 1.983-2.397.876-.211 1.625.754 1.906 1.178.807 1.22 1.221 3.108.777 4.413H2.955c-.141-.443-.179-.943.122-1.336zM5.852 29.87 3.741 18.892c.138.133.281.263.427.389 2.208 1.901 5.239 2.948 8.535 2.948s6.328-1.047 8.535-2.948c.052-.044.102-.09.152-.135l-.431 2.243c-.02.007-.041.013-.061.021-1.41.5-2.261 1.935-2.276 3.839-.009 1.164.297 2.483.898 3.622l-.192.999H5.851zm21.71-.438c-.943.351-1.881.017-1.916.005a1.04 1.04 0 0 0-.768 0c-.009.004-.96.352-1.917-.005-1.338-.498-2.223-2.556-2.21-4.165.004-.466.095-1.578.858-1.849.349-.124.661-.175.939-.175 1.107 0 1.657.812 1.782 1.024a1.047 1.047 0 0 0 1.862 0c.156-.265.977-1.468 2.721-.849.763.271.854 1.383.858 1.849.013 1.609-.872 3.667-2.21 4.166z"/></symbol><symbol id="icon-advantages3" viewBox="0 0 32 32"><path d="M28.01 2.507C26.615.891 24.68 0 22.562 0c-2.313 0-4.332 1.073-5.839 3.102-.169.227-.433.358-.723.358s-.555-.13-.723-.358C13.77 1.073 11.751 0 9.438 0 7.32 0 5.385.89 3.99 2.507 2.667 4.04 1.938 6.086 1.938 8.267c0 2.476.953 4.868 2.912 7.312 1.831 2.284 4.56 4.627 8.338 7.159V32h5.625v-9.262c3.778-2.532 6.507-4.875 8.338-7.159 1.96-2.444 2.912-4.836 2.912-7.312 0-2.181-.729-4.227-2.052-5.76zM16.938 30.125h-1.875v-6.564a4.767 4.767 0 0 0 1.876 0v6.564zm.662-8.831a2.88 2.88 0 0 1-3.2 0c-4.43-2.951-7.408-5.649-9.049-8.234a2.817 2.817 0 0 0 2.211-2.747c0-.517.421-.938.938-.938s.938.421.938.938v1.875c0 1.551 1.262 2.813 2.813 2.813s2.813-1.262 2.813-2.813v-1.875c0-.517.421-.938.937-.938s.938.421.938.938v1.875c0 1.551 1.262 2.813 2.813 2.813s2.813-1.262 2.813-2.813v-1.875c0-.517.421-.938.938-.938s.938.421.938.938c0 1.344.948 2.471 2.211 2.747-1.641 2.585-4.619 5.283-9.049 8.234zm9.65-10.044a.94.94 0 0 1-.938-.938c0-1.551-1.262-2.813-2.813-2.813s-2.813 1.262-2.813 2.813v1.875c0 .517-.421.938-.938.938s-.938-.421-.938-.938v-1.875c0-1.551-1.262-2.813-2.813-2.813s-2.813 1.262-2.813 2.813v1.875c0 .517-.421.938-.938.938s-.938-.421-.938-.938v-1.875c0-1.551-1.262-2.813-2.813-2.813s-2.813 1.262-2.813 2.813a.94.94 0 0 1-1.305.864c-.382-.979-.571-1.945-.571-2.909 0-3.644 2.418-6.392 5.625-6.392 1.72 0 3.178.789 4.334 2.345.526.709 1.339 1.115 2.229 1.115s1.703-.406 2.229-1.115c1.155-1.556 2.613-2.345 4.334-2.345 3.207 0 5.625 2.748 5.625 6.392 0 .963-.188 1.93-.571 2.909a.933.933 0 0 1-.367.074z"/></symbol><symbol id="bracketBlack" viewBox="0 0 32 32"><path d="M24.889 14.751 10.649.511C10.32.181 9.88 0 9.411 0s-.908.182-1.238.511L7.124 1.559a1.754 1.754 0 0 0 0 2.476l11.958 11.958L7.111 27.964c-.329.33-.511.769-.511 1.238s.182.908.511 1.238l1.049 1.048c.33.33.769.511 1.238.511s.908-.182 1.238-.511L24.89 17.235c.33-.331.511-.772.51-1.242a1.742 1.742 0 0 0-.51-1.243z"/></symbol><symbol id="icon-facebook" viewBox="0 0 32 32"><path d="M22.143 15.971H18.11v14.865h-6.112V15.971H9.092v-5.222h2.906V7.367c0-2.417 1.142-6.204 6.167-6.204l4.527.019v5.072h-3.284c-.538 0-1.297.272-1.297 1.425v3.073h4.567l-.534 5.219z"/></symbol><symbol id="icon-github" viewBox="0 0 32 32"><path d="M16 0C7.211 0 0 7.211 0 16c0 7.499 5.262 14.312 12.25 16v-5.293a3.921 3.921 0 0 1-2.062-.06l.028.007c-.946-.278-1.714-.909-2.285-1.869-.363-.613-1.008-1.28-1.68-1.23l-.165-1.867c1.454-.125 2.71.886 3.456 2.139.333.558.715.885 1.205 1.029.472.141.981.074 1.573-.136.149-1.186.693-1.629 1.104-2.256-4.168-.621-5.829-2.832-6.488-4.576-.874-2.318-.405-5.213 1.139-7.043.03-.035.085-.128.064-.192-.709-2.141.154-3.91.186-4.098.818.24.95-.243 3.552 1.336l.448.27c.189.112.128.048.317.032a13.246 13.246 0 0 1 3.349-.469h.01c1.136.014 2.272.176 3.403.483l.146.016c-.013-.003.04-.01.128-.062 3.248-1.968 3.131-1.325 4.003-1.608.032.189.882 1.987.182 4.099-.096.291 2.816 2.957 1.202 7.235-.659 1.744-2.32 3.957-6.486 4.578.534.816 1.176 1.248 1.173 2.928v6.606c6.986-1.688 12.25-8.501 12.25-16 0-8.789-7.211-16-16-16z"/></symbol><symbol id="icon-home" viewBox="0 0 32 32"><path d="M31.618 15.643c.237-.258.382-.603.382-.983a1.45 1.45 0 0 0-.501-1.098l-.002-.002L17.86 1.629a1.69 1.69 0 0 0-1.093-.399c-.431 0-.824.16-1.124.425l.002-.002L1.964 14.197a1.443 1.443 0 0 0-.066 2.078l.345.357c.566.591 1.487.665 2.053.158l1.022-.916V29.28c0 .825.665 1.489 1.489 1.489h5.329c.822 0 1.489-.665 1.489-1.489v-9.378h6.806v9.378c-.012.822.576 1.489 1.398 1.489h5.652c.822 0 1.487-.665 1.487-1.489V16.062l.633.556c.347.305 1.078.059 1.63-.549l.389-.426z"/></symbol><symbol id="icon-quotes" viewBox="0 0 32 32"><path d="M23.714 4.148c1.428 0 2.777.385 4.047 1.156s2.302 1.879 3.095 3.324c.762 1.445 1.143 3.148 1.143 5.107s-.476 3.87-1.428 5.733c-.318.674-.889 1.541-1.715 2.601a47.007 47.007 0 0 1-2.38 2.746l-3 3.035-2.143-3.565a16.477 16.477 0 0 0 3.931-3.442l.022-.027C26.429 19.467 27 18.231 27 17.106c0-.578-.127-1.044-.38-1.397a6.194 6.194 0 0 1-3.714 1.205c-.984 0-1.921-.305-2.809-.916a6.394 6.394 0 0 1-2.174-2.28l-.016-.032c-.571-.932-.857-1.895-.857-2.891 0-1.125.333-2.2 1-3.228a7.635 7.635 0 0 1 2.491-2.486l.033-.019c1.015-.61 2.062-.916 3.142-.916zm-17.095 0c1.428 0 2.777.385 4.047 1.156s2.302 1.879 3.095 3.324c.762 1.445 1.143 3.148 1.143 5.107 0 1.381-.175 2.617-.524 3.71-.35 1.124-.952 2.296-1.81 3.517-.825 1.156-1.603 2.12-2.333 2.891-.73.803-2 2.136-3.81 3.999l-2.143-3.565a16.477 16.477 0 0 0 3.931-3.442l.022-.027c1.143-1.349 1.714-2.585 1.714-3.71 0-.578-.127-1.044-.381-1.397a6.194 6.194 0 0 1-3.714 1.205c-.984 0-1.921-.305-2.809-.916a6.394 6.394 0 0 1-2.174-2.28l-.016-.032C.286 12.756 0 11.793 0 10.797c0-1.125.318-2.2.952-3.228a7.635 7.635 0 0 1 2.491-2.486l.033-.019c1.015-.61 2.062-.916 3.143-.916z"/></symbol><symbol id="icon-telegram" viewBox="0 0 32 32"><path d="m12.612 19.671-.49 6.444c.703 0 1.007-.282 1.372-.62l3.292-2.938 6.822 4.665c1.251.65 2.134.307 2.471-1.075L30.558 6.56c.399-1.727-.669-2.401-1.887-1.978L2.348 13.989c-1.796.652-1.77 1.585-.305 2.012l6.729 1.952 15.632-9.129c.736-.455 1.405-.204.855.252L12.612 19.672z"/></symbol><symbol id="right-arrow" viewBox="0 0 32 32"><path d="M31.489 14.757 19.933 3.2c-.33-.33-.77-.511-1.238-.511s-.909.181-1.239.511l-1.049 1.05c-.33.329-.511.769-.511 1.238s.182.924.511 1.253l6.742 6.757H1.73A1.71 1.71 0 0 0 .001 15.22v1.484c0 .966.763 1.798 1.729 1.798h21.495l-6.818 6.794c-.33.33-.511.758-.511 1.227s.182.903.511 1.232l1.049 1.046c.33.33.769.51 1.239.51s.908-.182 1.238-.512l11.556-11.556c.331-.331.513-.773.511-1.242a1.745 1.745 0 0 0-.511-1.244z"/></symbol></defs></svg>